0
SECTION
2
HEADER
9
$ACADVER
1
AC1015
9
$EXTMIN
10
0.0
20
0.0
30
0.0
9
$EXTMAX
10
200.0
20
150.0
30
0.0
0
ENDSEC
0
SECTION
2
ENTITIES
0
LINE
8
0
62
7
10
10.0
20
10.0
11
190.0
21
10.0
0
LINE
8
0
62
7
10
190.0
20
10.0
11
190.0
21
140.0
0
LINE
8
0
62
7
10
190.0
20
140.0
11
10.0
21
140.0
0
LINE
8
0
62
7
10
10.0
20
140.0
11
10.0
21
10.0
0
CIRCLE
8
0
62
3
10
100.0
20
75.0
40
30.0
0
LINE
8
0
62
1
10
50.0
20
75.0
11
150.0
21
75.0
0
LINE
8
0
62
2
10
100.0
20
30.0
11
100.0
21
120.0
0
ARC
8
0
62
5
10
100.0
20
75.0
40
50.0
50
30.0
51
150.0
0
TEXT
8
0
62
4
10
100.0
20
75.0
40
10.0
1
DXF Viewer Test
72
1
73
2
11
100.0
21
75.0
0
LWPOLYLINE
8
0
62
6
90
5
70
1
10
30.0
20
30.0
10
50.0
20
50.0
10
40.0
20
70.0
10
20.0
20
50.0
10
30.0
20
30.0
0
ENDSEC
0
EOF
